<?xml version="1.0" ?>
<!DOCTYPE svg
  PUBLIC '-//W3C//DTD SVG 1.1//EN'
  'http://www.w3.org/Graphics/SVG/1.1/DTD/svg11.dtd'>
<svg enable_background="new 0 0 870 543" height="543px" style="stroke-linejoin: round; stroke:#000; fill: none;" version="1.1" viewBox="0 0 870 543" width="870px" xmlns="http://www.w3.org/2000/svg" xmlns:xlink="http://www.w3.org/1999/xlink">
    <defs>
        <style type="text/css"><![CDATA[path { fill-rule: evenodd; } ]]></style>
    </defs>
<!--     <metadata>
        <views>
            <view h="543.516563283" padding="0" w="870">
                <proj id="laea" lat0="42.1970011583" lon0="-100"/>
                <bbox h="314.79" w="504.81" x="774.58" y="885.92"/>
            </view>
        </views>
    </metadata> -->
    <g class="" fill="#F5F4F4" id="usa">
        <path d="M853.3,130.2L851.0,133.5L855.0,132.3L853.3,130.2Z M844.3,131.6L844.1,134.3L846.1,133.5L844.3,131.6Z M852.4,126.7L852.3,125.4L852.1,124.5L852.4,126.7Z M829.6,104.5L829.4,104.5L829.3,104.6L828.1,105.7L828.0,105.9L828.0,106.0L827.8,106.4L827.8,106.5L827.6,106.7L827.5,106.8L827.4,106.9L827.2,106.9L826.9,107.0L826.8,107.1L826.7,107.2L826.6,107.2L826.6,107.3L826.5,107.6L826.5,107.7L826.5,107.9L826.5,108.4L826.5,108.5L826.4,108.7L826.2,108.9L826.0,109.1L825.8,109.2L825.8,109.3L825.7,109.6L825.5,109.9L825.4,110.2L825.3,110.3L825.1,110.4L824.8,110.5L823.8,110.8L822.7,111.1L821.7,111.5L820.7,111.8L819.6,112.1L818.6,112.5L817.5,112.8L816.5,113.1L815.5,113.4L814.4,113.8L813.4,114.1L812.3,114.4L811.3,114.7L808.2,115.7L808.1,115.7L808.1,115.7L807.4,115.9L806.7,116.2L806.0,116.4L805.2,116.6L804.5,116.8L803.8,117.0L803.1,117.2L802.4,117.5L801.6,117.7L800.9,117.9L800.2,118.1L799.5,118.3L798.7,118.5L798.0,118.7L797.3,118.9L796.6,119.2L796.4,119.6L796.4,120.1L796.5,121.7L796.6,123.3L796.7,124.9L796.8,126.5L796.9,128.1L797.0,129.7L797.1,131.3L797.2,132.9L797.2,133.8L797.3,134.2L797.8,134.5L799.6,134.0L801.5,133.5L803.3,133.0L805.1,132.4L806.1,132.1L807.1,131.9L807.9,131.7L808.1,132.2L808.7,131.9L808.6,131.4L810.6,130.8L811.3,130.7L811.6,130.4L812.3,130.2L814.5,129.5L816.7,128.8L818.9,128.1L821.0,127.4L822.7,126.8L822.8,127.0L824.1,126.5L825.4,126.0L826.8,125.5L828.1,125.0L828.8,124.7L828.9,125.0L829.2,125.6L829.7,126.9L829.8,127.0L829.8,127.1L830.0,127.1L830.2,127.0L830.4,127.0L830.4,127.0L830.5,127.3L830.6,127.4L830.6,127.5L830.6,127.7L830.7,127.8L830.8,128.0L830.9,128.7L831.0,128.8L831.1,129.0L831.2,129.1L831.4,129.3L831.7,129.4L831.9,129.4L832.1,129.4L832.5,129.5L833.2,130.2L833.9,129.7L834.1,128.2L834.0,130.4L834.0,130.6L834.3,130.6L835.1,130.6L835.1,130.9L835.2,131.2L835.3,131.5L835.3,131.8L835.4,131.8L835.5,132.0L835.8,132.5L836.0,132.9L836.2,133.4L836.3,133.6L837.5,133.3L841.0,127.8L845.0,129.2L845.9,127.2L852.4,123.9L851.1,120.2L847.2,124.9L842.7,124.3L842.1,122.4L835.9,116.6L834.1,116.5L833.6,117.8L832.5,111.4L836.1,107.9L833.6,108.3L831.0,104.2L830.5,104.5L830.2,104.5L829.6,104.5Z "/>
        <path d="M427.3,51.4L429.3,58.6L429.2,67.9L429.6,70.3L433.0,79.1L434.6,92.0L435.5,94.9L436.1,104.0L438.5,109.5L439.1,114.1L439.4,115.7L439.3,115.9L438.1,120.0L435.2,122.7L437.9,127.1L441.5,129.3L443.0,162.8L443.2,167.4L448.2,167.2L468.2,166.1L493.1,164.4L518.0,162.1L523.0,161.6L523.1,161.1L521.6,153.3L519.4,150.9L515.5,150.1L513.6,148.7L510.6,145.0L502.9,140.3L500.5,140.1L496.7,137.3L497.2,135.9L496.5,130.9L497.7,123.3L495.6,120.0L494.2,120.0L494.0,117.1L495.4,114.4L497.7,111.7L501.9,108.5L500.8,96.3L503.2,93.8L505.4,94.4L512.1,89.6L524.1,80.1L531.6,79.6L532.9,79.5L533.2,78.5L533.5,77.5L537.4,63.7L536.1,63.9L531.8,64.7L529.2,62.7L527.5,62.4L519.6,64.0L516.8,61.2L513.1,64.2L509.3,65.8L506.3,65.1L505.0,63.3L502.2,62.7L500.4,60.4L497.5,61.0L496.4,63.4L494.7,59.9L491.1,58.8L492.2,57.5L487.4,55.9L483.2,55.9L480.5,56.8L480.5,57.6L476.4,58.8L475.1,56.8L465.4,55.6L464.3,55.2L460.7,46.1L460.3,43.4L455.6,42.1L456.0,49.9L443.6,50.7L428.3,51.4L427.3,51.4Z "/>
        <path d="M329.0,111.3L331.4,65.3L331.9,54.7L332.1,50.7L330.1,50.6L305.7,49.1L284.3,47.3L259.9,44.8L232.6,41.4L199.3,36.3L169.3,30.9L166.5,30.3L162.2,51.0L164.1,54.7L165.6,60.4L164.7,61.3L166.7,66.6L169.3,68.8L173.4,78.0L174.4,79.6L176.9,81.2L177.5,83.3L180.6,83.2L178.1,90.9L177.1,99.9L174.4,101.7L174.9,102.9L173.8,105.8L176.4,108.2L180.0,107.0L182.1,104.7L183.8,106.4L185.5,114.8L187.3,117.9L190.3,124.9L191.3,125.7L195.3,133.8L196.3,133.1L204.8,132.8L211.5,134.2L215.4,133.9L216.2,131.2L218.0,130.5L221.2,136.2L221.8,136.4L221.9,135.8L223.3,125.9L243.4,128.4L258.0,130.0L285.6,132.5L300.3,133.6L326.4,135.2L327.7,135.3L328.0,135.3L328.0,133.8L328.3,126.8L328.8,117.6L328.9,115.3L329.0,111.3Z "/>
        <path d="M439.1,114.1L438.5,109.5L436.1,104.0L435.5,94.9L434.6,92.0L433.0,79.1L429.6,70.3L429.2,67.9L429.3,58.6L427.3,51.4L425.2,51.5L412.9,51.8L397.6,52.0L373.1,51.9L354.7,51.5L333.2,50.7L332.1,50.7L331.9,54.7L331.4,65.3L329.0,111.3L328.9,115.3L332.8,115.5L374.1,116.7L377.5,116.7L418.8,116.4L436.0,115.8L439.4,115.7L439.1,114.1Z "/>
        <path d="M221.2,136.2L218.0,130.5L216.2,131.2L215.4,133.9L211.5,134.2L204.8,132.8L196.3,133.1L195.3,133.8L191.3,125.7L190.3,124.9L187.3,117.9L185.5,114.8L183.8,106.4L182.1,104.7L180.0,107.0L176.4,108.2L173.8,105.8L174.9,102.9L174.4,101.7L177.1,99.9L178.1,90.9L180.6,83.2L177.5,83.3L176.9,81.2L174.4,79.6L173.4,78.0L169.3,68.8L166.7,66.6L164.7,61.3L165.6,60.4L164.1,54.7L162.2,51.0L166.5,30.3L166.3,30.3L157.4,28.5L154.4,27.9L153.0,27.6L141.5,81.1L141.2,81.7L142.0,87.0L141.6,89.4L141.7,90.4L141.7,90.5L141.9,92.5L145.4,96.2L142.0,105.2L140.4,108.7L138.1,111.2L138.0,112.2L129.9,122.5L129.6,125.1L132.8,126.4L132.3,131.5L122.9,171.6L122.4,173.7L125.3,174.3L153.9,179.7L165.4,181.7L168.3,182.2L171.2,182.7L185.7,185.0L212.0,188.8L214.9,189.2L215.3,185.9L216.2,179.3L219.6,152.9L221.4,139.7L221.8,136.4L221.2,136.2Z "/>
        <path d="M44.4,56.2L44.2,54.8L44.0,55.3L44.4,56.2Z M65.7,47.1L66.4,46.1L65.7,46.0L65.7,47.1Z M63.8,45.4L64.4,43.3L63.8,43.1L63.8,45.4Z M71.4,38.1L71.7,36.1L71.5,35.6L71.4,38.1Z M71.6,28.2L71.6,27.1L71.2,27.0L71.6,28.2Z M74.9,21.5L73.9,21.3L72.3,26.1L74.6,31.9L74.6,28.9L73.2,29.3L72.1,24.2L73.6,23.9L74.9,21.5Z M71.8,19.0L71.5,17.0L70.6,18.7L71.8,19.0Z M74.4,17.9L74.3,16.6L74.0,17.1L74.4,17.9Z M70.2,17.4L69.3,15.0L68.3,14.9L68.7,17.7L70.2,17.4Z M73.2,13.9L70.5,14.7L71.2,14.9L73.2,13.9Z M72.4,7.5L72.6,7.4L71.8,7.6L72.4,7.5Z M151.4,27.2L127.6,21.9L107.0,16.8L83.5,10.5L76.4,8.8L75.9,14.2L78.2,14.3L78.1,17.6L76.6,20.5L75.0,18.7L73.9,19.1L76.0,24.7L74.9,24.8L75.4,27.6L75.9,25.3L77.4,30.3L73.8,34.4L72.4,43.1L70.5,44.4L69.1,43.8L66.4,47.2L64.2,45.9L61.5,46.9L65.9,41.1L64.8,45.1L66.1,44.7L67.3,42.2L69.4,42.7L70.7,39.7L70.0,37.8L72.8,31.7L71.8,30.7L68.3,35.4L63.7,37.6L61.1,40.9L61.9,38.8L66.0,35.5L68.5,32.7L71.3,31.9L70.4,26.7L66.2,24.5L64.2,24.6L53.7,19.8L47.0,13.3L46.2,13.6L44.8,17.8L44.6,23.9L45.2,24.5L46.1,28.3L45.5,36.1L46.7,43.4L47.9,45.4L45.8,46.5L44.7,46.0L44.9,50.0L47.3,51.3L43.8,57.4L44.1,52.0L42.5,58.6L50.2,61.6L53.1,64.6L53.4,64.7L55.7,66.1L57.0,68.6L56.5,76.2L57.2,78.1L62.7,81.0L70.2,79.6L73.4,80.2L78.1,82.2L78.7,84.0L82.4,84.6L86.1,84.1L92.9,84.9L97.2,84.0L101.3,84.2L104.2,83.7L109.8,84.5L111.3,83.8L139.8,90.0L141.7,90.4L141.6,89.4L142.0,87.0L141.2,81.7L141.5,81.1L153.0,27.6L151.4,27.2Z "/>
        <path d="M235.4,298.6L232.8,298.3L222.2,297.2L198.6,294.3L180.3,291.8L154.2,287.8L151.6,287.4L151.6,287.5L147.1,307.3L144.8,307.2L137.6,304.3L136.8,307.9L137.3,308.9L136.5,312.6L136.9,314.2L136.5,318.8L136.8,324.0L135.2,327.5L135.2,327.8L135.2,327.9L135.0,330.4L137.6,336.3L138.5,340.0L141.7,343.4L141.7,344.2L136.1,347.6L133.6,350.4L133.8,351.7L130.2,360.7L128.4,361.2L128.3,368.6L131.5,370.9L129.8,375.4L126.2,375.7L126.0,376.2L123.8,379.8L145.1,391.7L166.0,402.9L185.4,413.0L188.7,414.4L223.7,418.3L224.1,418.4L228.9,366.0L235.0,302.4L235.4,298.6Z "/>
        <path d="M63.0,361.4L60.7,357.9L60.8,360.3L63.0,361.4Z M65.3,349.4L63.1,348.3L63.3,350.7L66.0,351.1L65.3,349.4Z M38.8,329.9L35.5,329.1L36.4,331.7L39.2,331.7L38.8,329.9Z M42.8,330.0L41.5,329.1L41.7,331.4L47.5,331.8L47.2,331.0L42.8,330.0Z M76.8,163.5L72.8,162.6L45.1,155.4L17.6,147.7L13.2,146.4L13.2,146.8L11.2,150.6L12.2,151.9L12.0,159.5L9.3,164.3L8.7,167.7L6.9,170.5L8.1,171.2L2.8,175.1L1.2,177.7L0.9,181.3L4.4,188.3L6.3,196.3L4.8,200.7L4.0,205.0L4.1,210.2L3.0,212.0L5.5,216.9L7.9,222.7L9.6,224.2L10.0,227.8L10.9,229.9L9.4,234.8L10.6,234.1L13.7,238.1L14.1,237.4L15.9,240.2L17.5,236.1L19.8,233.8L23.0,237.1L21.4,236.8L18.7,238.9L21.0,245.3L21.3,248.8L18.1,246.1L18.3,243.0L16.3,241.1L14.7,245.9L15.7,250.0L14.7,253.4L17.0,258.4L18.7,260.3L21.0,260.6L22.0,266.3L20.4,268.4L19.7,267.6L18.7,270.4L19.4,276.2L21.7,278.9L22.4,281.8L25.6,290.6L29.1,295.7L31.2,297.6L31.6,299.3L30.2,301.5L33.7,304.1L32.3,308.3L32.2,311.6L34.3,319.3L40.0,320.5L43.4,322.3L48.9,323.9L53.3,328.5L54.8,331.7L65.5,336.2L66.4,340.0L66.1,342.3L70.5,342.6L79.8,353.6L82.5,361.6L81.7,367.8L83.4,371.6L84.8,371.9L126.2,375.6L126.2,375.7L129.8,375.4L131.5,370.9L128.3,368.6L128.4,361.2L130.2,360.7L133.8,351.7L133.6,350.4L136.1,347.6L141.7,344.2L141.7,343.4L138.5,340.0L137.6,336.3L135.0,330.4L135.2,327.9L135.2,327.8L135.2,327.8L132.5,324.2L124.4,313.5L94.0,270.8L86.7,260.2L74.3,243.2L62.3,226.1L75.9,167.4L76.8,163.5Z "/>
        <path d="M355.2,241.2L355.7,221.3L350.8,221.1L326.1,220.2L323.7,220.1L321.7,220.0L291.5,218.2L271.5,216.7L246.5,214.3L244.0,214.0L243.7,216.7L238.3,269.5L236.4,288.0L235.6,296.0L235.4,298.6L238.6,298.9L286.4,303.0L289.6,303.2L334.5,305.6L337.7,305.7L339.8,305.7L343.9,305.9L346.0,305.9L352.3,306.1L354.0,306.1L354.0,304.2L355.1,250.4L355.2,244.5L355.2,242.5L355.2,241.2Z "/>
        <path d="M151.6,287.4L152.1,284.1L162.4,218.4L167.8,185.5L168.3,182.2L165.4,181.7L153.9,179.7L125.3,174.3L122.4,173.7L119.6,173.1L99.6,168.8L96.7,168.2L79.6,164.2L76.8,163.5L75.9,167.4L62.3,226.1L74.3,243.2L86.7,260.2L94.0,270.8L124.4,313.5L132.5,324.2L135.2,327.8L135.2,327.8L135.2,327.5L136.8,324.0L136.5,318.8L136.9,314.2L136.5,312.6L137.3,308.9L136.8,307.9L137.6,304.3L144.8,307.2L147.1,307.3L151.6,287.5L151.6,287.4Z "/>
        <path d="M337.3,316.3L337.4,313.6L337.5,311.0L337.6,308.3L337.7,305.7L334.5,305.6L289.6,303.2L286.4,303.0L238.6,298.9L235.4,298.6L235.0,302.4L228.9,366.0L224.1,418.4L224.5,418.4L239.2,419.8L240.0,410.3L270.8,413.0L271.0,413.3L268.8,410.4L268.3,408.0L281.1,408.9L313.1,410.7L333.2,411.5L336.6,316.2L337.3,316.3Z "/>
        <path d="M53.1,64.8L49.9,63.9L49.5,62.5L45.5,61.9L43.7,62.2L42.5,60.4L42.0,65.0L39.4,69.9L40.1,71.6L39.1,76.2L37.9,76.8L36.8,80.2L33.7,87.3L32.6,88.8L30.3,97.2L28.3,100.5L26.6,105.6L20.2,117.5L22.6,115.9L22.4,118.4L21.2,117.0L19.9,119.3L18.5,119.6L13.4,128.4L13.5,134.8L12.9,135.5L11.8,143.5L13.1,145.9L13.2,146.4L17.6,147.7L45.1,155.4L72.8,162.6L76.8,163.5L79.6,164.2L96.7,168.2L99.6,168.8L119.6,173.1L122.4,173.7L122.9,171.6L132.3,131.5L132.8,126.4L129.6,125.1L129.9,122.5L138.0,112.2L138.1,111.2L140.4,108.7L142.0,105.2L145.4,96.2L141.9,92.5L141.7,90.5L141.7,90.4L139.8,90.0L111.3,83.8L109.8,84.5L104.2,83.7L101.3,84.2L97.2,84.0L92.9,84.9L86.1,84.1L82.4,84.6L78.7,84.0L78.1,82.2L73.4,80.2L70.2,79.6L62.7,81.0L57.2,78.1L56.5,76.2L57.0,68.6L55.7,66.1L53.4,64.7L53.1,64.8Z "/>
        <path d="M212.0,188.8L185.7,185.0L171.2,182.7L168.3,182.2L167.8,185.5L162.4,218.4L152.1,284.1L151.6,287.4L154.2,287.8L180.3,291.8L198.6,294.3L222.2,297.2L232.8,298.3L235.4,298.6L235.6,296.0L236.4,288.0L238.3,269.5L243.7,216.7L244.0,214.0L242.0,213.8L216.1,210.8L212.2,210.3L214.7,190.5L214.9,189.2L212.0,188.8Z "/>
        <path d="M325.8,175.0L326.5,159.1L327.6,137.9L327.7,135.3L326.4,135.2L300.3,133.6L285.6,132.5L258.0,130.0L243.4,128.4L223.3,125.9L221.9,135.8L221.8,136.4L221.4,139.7L219.6,152.9L216.2,179.3L215.3,185.9L214.9,189.2L214.7,190.5L212.2,210.3L216.1,210.8L242.0,213.8L244.0,214.0L246.5,214.3L271.5,216.7L291.5,218.2L321.7,220.0L323.7,220.1L323.8,217.5L324.3,206.9L325.2,188.3L325.5,180.3L325.7,177.7L325.8,175.0Z "/>
        <path d="M564.8,317.4L553.8,319.0L553.6,318.6L558.3,311.9L557.8,309.8L556.4,308.0L517.8,311.6L485.1,314.0L480.5,314.3L481.0,317.2L484.9,337.7L485.1,342.3L486.1,370.0L486.3,374.6L486.6,374.6L488.1,376.3L490.7,375.8L494.1,376.0L494.7,385.0L494.9,387.5L498.1,387.3L507.6,386.6L545.8,383.2L546.0,383.2L545.9,381.0L546.9,380.2L545.1,376.8L545.8,373.3L544.0,371.5L544.2,368.6L546.5,363.6L548.8,361.0L547.6,359.3L550.5,353.6L553.3,352.4L552.9,346.9L555.0,345.0L554.7,343.6L556.5,342.6L557.7,340.3L557.1,339.8L557.1,339.7L556.9,339.4L560.5,336.1L559.5,332.0L562.4,327.6L561.8,323.4L565.2,320.9L564.8,317.6L564.8,317.4L564.8,317.4Z "/>
        <path d="M534.8,181.0L529.2,178.1L526.2,173.9L525.1,167.9L525.9,165.2L523.2,162.6L523.0,161.6L523.0,161.6L518.0,162.1L493.1,164.4L468.2,166.1L448.2,167.2L443.2,167.4L441.0,167.6L442.0,169.9L441.6,173.0L443.2,176.6L441.4,184.2L442.9,185.5L443.6,187.5L443.6,188.3L444.3,188.4L444.9,188.7L447.5,197.9L449.2,199.3L449.7,201.9L450.7,202.8L450.8,208.6L453.0,210.2L455.3,223.7L456.8,228.1L456.8,228.5L456.8,228.5L477.5,227.9L499.8,226.1L518.2,223.9L521.6,223.3L526.5,227.8L526.7,227.9L527.6,227.6L526.9,223.6L530.7,221.3L531.3,219.3L532.2,211.0L530.7,210.2L530.5,207.0L531.6,204.9L536.1,204.0L541.2,200.4L541.6,197.5L543.4,194.1L543.6,190.8L539.5,187.0L538.3,184.5L534.5,182.0L534.7,181.5L534.8,181.0Z "/>
        <path d="M479.7,301.0L477.4,263.1L477.2,258.1L472.7,255.5L472.2,253.5L468.6,250.2L470.5,247.0L472.2,245.9L470.8,243.3L468.2,243.4L465.7,241.6L464.7,240.8L461.3,241.0L423.8,242.4L406.8,242.8L372.7,242.8L359.1,242.6L355.2,242.5L355.2,244.5L355.1,250.4L354.0,304.2L354.0,306.1L358.3,306.2L381.9,306.5L401.5,306.5L417.2,306.3L436.8,305.8L475.9,304.0L479.8,303.7L479.7,301.0Z "/>
        <path d="M526.5,227.8L521.6,223.3L518.2,223.9L499.8,226.1L477.5,227.9L456.8,228.5L456.8,228.5L456.7,229.0L458.0,230.1L459.2,233.9L461.5,235.6L462.9,239.6L464.2,240.4L464.7,240.8L465.7,241.6L468.2,243.4L470.8,243.3L472.2,245.9L470.5,247.0L468.6,250.2L472.2,253.5L472.7,255.5L477.2,258.1L477.4,263.1L479.7,301.0L479.8,303.7L480.0,306.4L480.2,309.0L480.3,311.7L480.5,314.3L485.1,314.0L517.8,311.6L556.4,308.0L557.8,309.8L558.3,311.9L553.6,318.6L553.8,319.0L564.8,317.4L564.8,317.4L564.9,316.7L565.0,312.0L566.6,311.8L565.6,310.0L567.1,309.4L566.5,306.6L566.4,306.5L566.2,306.4L566.6,305.0L567.3,305.3L567.6,306.1L567.5,306.4L567.5,306.5L567.5,307.3L567.9,307.4L568.7,306.4L568.7,306.3L568.8,306.0L571.4,304.4L571.9,304.1L572.7,295.9L572.6,295.5L572.3,295.4L569.3,294.0L568.2,294.6L565.1,289.4L566.3,287.3L564.4,284.0L564.2,281.6L560.5,278.6L553.6,275.6L549.3,272.0L548.6,268.6L551.2,259.4L551.1,257.9L546.5,256.2L543.8,258.2L541.7,256.0L540.6,251.3L535.0,246.9L534.2,245.6L529.1,241.5L526.6,235.9L525.9,232.4L526.7,227.9L526.7,227.9L526.5,227.8Z "/>
        <path d="M441.6,188.0L439.5,185.0L435.4,183.3L433.3,182.9L430.5,180.9L424.6,181.8L423.9,181.5L418.5,183.1L412.1,179.0L392.2,179.2L363.1,178.9L339.3,178.3L328.7,177.8L325.7,177.7L325.5,180.3L325.2,188.3L324.3,206.9L323.8,217.5L323.7,220.1L326.1,220.2L350.8,221.1L355.7,221.3L355.2,241.2L355.2,242.5L359.1,242.6L372.7,242.8L406.8,242.8L423.8,242.4L461.3,241.0L464.7,240.8L464.2,240.4L462.9,239.6L461.5,235.6L459.2,233.9L458.0,230.1L456.7,229.0L456.8,228.5L456.8,228.1L455.3,223.7L453.0,210.2L450.8,208.6L450.7,202.8L449.7,201.9L449.2,199.3L447.5,197.9L444.9,188.7L444.3,188.4L443.6,188.3L441.6,188.0Z "/>
        <path d="M480.3,311.7L480.2,309.0L480.0,306.4L479.8,303.7L475.9,304.0L436.8,305.8L417.2,306.3L401.5,306.5L381.9,306.5L358.3,306.2L354.0,306.1L352.3,306.1L346.0,305.9L343.9,305.9L339.8,305.7L337.7,305.7L337.6,308.3L337.5,311.0L337.4,313.6L337.3,316.3L337.9,316.3L362.4,316.9L388.5,317.1L388.6,354.3L389.7,357.8L390.5,358.0L394.5,361.9L397.4,361.5L398.8,362.0L399.8,360.3L405.7,365.7L406.6,365.4L411.1,367.1L413.5,366.6L414.9,368.1L417.8,366.8L420.1,367.1L422.3,369.2L424.8,370.2L424.8,372.2L427.4,372.0L430.2,369.7L431.5,371.7L435.2,372.9L438.4,371.8L438.0,373.3L440.0,374.7L443.3,370.2L447.3,371.8L447.5,371.1L451.7,373.3L453.6,375.1L457.4,372.0L460.5,370.7L463.1,371.4L466.5,369.3L471.0,370.5L472.6,368.7L477.7,370.9L482.1,373.8L486.2,374.5L486.3,374.6L486.1,370.0L485.1,342.3L484.9,337.7L481.0,317.2L480.5,314.3L480.3,311.7Z "/>
        <path d="M436.0,115.8L418.8,116.4L377.5,116.7L374.1,116.7L332.8,115.5L328.9,115.3L328.8,117.6L328.3,126.8L328.0,133.8L328.0,135.3L327.7,135.3L327.6,137.9L326.5,159.1L325.8,175.0L325.7,177.7L328.7,177.8L339.3,178.3L363.1,178.9L392.2,179.2L412.1,179.0L418.5,183.1L423.9,181.5L424.6,181.8L430.5,180.9L433.3,182.9L435.4,183.3L439.5,185.0L441.6,188.0L443.6,188.3L443.6,187.5L442.9,185.5L441.4,184.2L443.2,176.6L441.6,173.0L442.0,169.9L441.0,167.6L443.2,167.4L443.0,162.8L441.5,129.3L437.9,127.1L435.2,122.7L438.1,120.0L439.3,115.9L439.4,115.7L436.0,115.8Z "/>
        <path d="M557.4,466.1L557.4,466.1L557.2,466.0L557.4,466.1Z M562.9,465.3L561.0,466.2L561.6,465.6L562.9,465.3Z M567.2,465.3L566.3,465.3L566.5,465.0L567.2,465.3Z M569.6,464.5L568.5,465.0L569.0,464.5L569.6,464.5Z M590.7,452.6L590.6,452.7L591.3,451.7L590.7,452.6Z M592.7,449.9L592.6,450.1L592.5,450.0L592.7,449.9Z M540.7,458.6L536.3,457.0L538.1,455.5L542.2,456.7L540.7,458.6Z M583.8,448.1L583.1,448.8L582.8,447.8L583.8,448.1Z M586.3,444.6L587.2,444.0L587.2,444.3L586.3,444.6Z M583.2,440.3L583.1,440.5L583.0,440.5L583.2,440.3Z M503.2,451.0L504.7,447.3L503.7,441.9L506.3,431.1L505.8,425.2L503.7,422.8L504.0,421.7L500.5,417.0L500.1,413.0L497.0,409.6L495.0,390.0L494.9,387.5L498.1,387.3L507.6,386.6L545.8,383.2L546.0,383.2L546.0,383.9L546.7,387.5L548.3,389.4L547.0,391.7L551.9,397.3L548.9,402.0L549.5,402.6L546.8,406.9L545.4,407.6L544.1,410.5L543.8,414.1L542.9,418.4L540.8,421.5L542.2,425.2L540.8,426.5L575.7,422.9L574.6,427.8L579.0,436.5L581.3,439.4L581.1,439.7L577.3,440.0L577.1,439.0L571.2,437.0L567.8,437.1L564.8,442.3L566.6,443.8L573.0,443.4L575.9,441.8L577.5,440.3L579.3,440.8L576.6,445.2L579.0,446.3L580.5,446.0L581.0,443.6L582.3,441.8L585.3,446.2L581.3,450.2L582.9,451.1L579.8,450.8L580.8,451.6L578.9,452.3L579.9,453.8L582.7,455.4L582.7,456.2L590.3,457.4L590.6,463.1L589.2,462.0L587.5,463.9L587.9,461.8L585.3,461.1L584.6,459.1L581.1,458.5L581.1,457.6L577.6,458.5L577.5,456.4L572.1,454.3L574.1,459.2L572.7,460.4L573.5,461.2L570.6,464.2L569.9,461.9L566.1,458.9L561.7,464.4L558.4,464.5L549.8,461.9L549.6,461.0L551.6,459.9L553.6,460.6L551.1,458.6L550.8,455.5L549.6,457.6L545.2,457.2L542.5,452.8L539.2,453.7L539.3,451.5L532.9,453.5L534.9,454.4L534.7,456.0L531.1,458.3L523.7,457.6L520.0,455.9L513.4,454.4L505.6,455.5L502.3,456.8L501.8,456.1L503.3,451.0L503.2,451.0Z "/>
        <path d="M443.0,535.8L441.6,528.8L439.4,522.3L438.3,517.3L438.3,520.8L442.1,531.4L443.0,535.8Z M444.8,498.7L448.0,494.4L445.7,495.8L444.8,498.7Z M456.2,488.3L448.7,492.2L448.4,494.3L450.7,491.8L456.2,488.3Z M457.2,486.9L458.6,485.4L457.9,485.8L457.2,486.9Z M485.1,465.6L483.2,467.9L486.3,466.0L485.1,465.6Z M503.2,451.0L504.7,447.3L503.7,441.9L506.3,431.1L505.8,425.2L503.7,422.8L504.0,421.7L500.5,417.0L500.1,413.0L497.0,409.6L495.0,390.0L494.9,387.5L494.7,385.0L494.1,376.0L490.7,375.8L488.1,376.3L486.6,374.6L486.3,374.6L486.2,374.5L482.1,373.8L477.7,370.9L472.6,368.7L471.0,370.5L466.5,369.3L463.1,371.4L460.5,370.7L457.4,372.0L453.6,375.1L451.7,373.3L447.5,371.1L447.3,371.8L443.3,370.2L440.0,374.7L438.0,373.3L438.4,371.8L435.2,372.9L431.5,371.7L430.2,369.7L427.4,372.0L424.8,372.2L424.8,370.2L422.3,369.2L420.1,367.1L417.8,366.8L414.9,368.1L413.5,366.6L411.1,367.1L406.6,365.4L405.7,365.7L399.8,360.3L398.8,362.0L397.4,361.5L394.5,361.9L390.5,358.0L389.7,357.8L388.6,354.3L388.5,317.1L362.4,316.9L337.9,316.3L337.3,316.3L336.6,316.2L333.2,411.5L313.1,410.7L281.1,408.9L268.3,408.0L268.8,410.4L271.0,413.3L271.4,413.4L274.1,415.8L275.4,418.7L281.8,424.0L283.4,426.4L286.5,428.9L287.5,430.6L290.9,434.0L294.4,436.2L298.0,439.3L301.1,446.8L302.2,448.4L302.0,453.7L303.7,456.7L304.5,459.6L309.3,462.8L313.0,467.0L318.3,468.9L320.1,470.8L326.7,474.0L330.2,474.9L335.7,467.2L336.0,465.0L338.6,459.8L344.0,458.7L347.8,457.4L349.5,458.4L353.4,458.4L361.3,458.9L363.8,461.8L365.9,462.8L376.2,473.6L376.9,477.3L378.8,479.9L383.2,490.6L385.0,492.6L387.6,494.4L391.1,500.1L391.1,501.0L394.9,504.0L396.3,504.4L398.6,508.1L399.2,517.3L400.3,518.7L405.8,528.1L405.7,530.0L409.8,531.1L414.7,533.7L415.8,533.2L419.9,534.6L422.8,537.0L425.6,537.6L430.9,537.1L433.3,537.7L436.7,540.4L437.8,540.5L441.5,538.9L443.7,538.8L442.8,537.7L441.6,538.4L442.3,536.2L440.6,535.9L439.3,532.2L439.6,530.9L437.8,527.3L437.3,524.3L435.4,519.4L436.7,519.8L435.1,517.4L437.4,512.2L435.0,512.3L430.9,511.2L437.9,509.7L440.4,502.9L437.2,499.6L440.6,498.7L441.9,499.5L444.7,495.2L444.3,493.7L441.1,494.5L442.6,492.9L446.8,490.3L446.2,493.3L449.0,491.0L447.9,487.1L448.8,485.7L451.6,489.0L456.2,486.4L452.7,483.5L452.2,482.3L455.2,482.2L455.6,483.0L460.0,480.8L459.8,483.0L463.3,482.6L460.7,484.0L466.6,481.5L468.8,479.9L464.5,480.7L466.9,479.6L469.3,479.4L475.2,476.0L479.0,472.4L478.6,469.0L479.6,469.7L484.1,464.8L481.0,461.8L481.3,458.1L483.0,459.2L484.5,456.9L485.9,456.4L486.7,457.8L485.9,460.8L486.5,461.6L489.2,460.7L490.9,461.4L489.0,461.9L485.6,464.7L493.7,460.3L499.1,457.7L501.3,457.6L500.6,454.1L502.8,451.0L503.2,451.0Z "/>
        <path d="M822.7,126.8L821.0,127.4L818.9,128.1L816.7,128.8L814.5,129.5L812.3,130.2L811.6,130.4L811.3,130.7L810.6,130.8L808.6,131.4L808.7,131.9L808.1,132.2L807.9,131.7L807.1,131.9L806.1,132.1L805.1,132.4L803.3,133.0L801.5,133.5L799.6,134.0L797.8,134.5L798.1,135.5L801.8,150.4L803.0,152.0L800.4,155.2L802.1,156.8L802.4,156.5L808.2,150.9L808.7,151.1L811.1,147.6L814.9,147.0L819.4,143.9L823.2,141.9L826.5,141.6L826.9,141.3L826.9,139.2L826.3,137.0L822.8,127.0L822.7,126.8Z "/>
        <path d="M809.3,56.3L807.9,58.0L806.5,57.6L805.4,63.9L805.6,64.3L808.1,73.5L807.8,75.4L806.1,78.3L803.4,81.1L804.5,86.3L804.5,92.9L803.6,99.0L804.7,102.5L805.8,113.1L808.1,115.7L808.1,115.7L808.2,115.7L808.2,115.7L811.3,114.7L812.3,114.4L813.4,114.1L814.4,113.8L815.5,113.4L816.5,113.1L817.5,112.8L818.6,112.5L819.6,112.1L820.7,111.8L821.7,111.5L822.7,111.1L823.8,110.8L824.8,110.5L825.1,110.4L825.3,110.3L825.4,110.2L825.5,109.9L825.7,109.6L825.8,109.3L825.8,109.2L826.0,109.1L826.2,108.9L826.4,108.7L826.5,108.5L826.5,108.4L826.5,107.9L826.5,107.7L826.5,107.6L826.6,107.3L826.6,107.2L826.7,107.2L826.8,107.1L826.9,107.0L827.2,106.9L827.4,106.9L827.5,106.8L827.6,106.7L827.8,106.5L827.8,106.4L828.0,106.0L828.0,105.9L828.1,105.7L829.3,104.6L829.4,104.5L829.6,104.5L830.2,104.5L830.5,104.5L831.0,104.2L830.9,102.6L831.2,99.9L830.5,100.2L830.5,99.6L827.3,96.5L823.9,91.0L809.3,56.3L809.3,56.3Z "/>
        <path d="M832.1,143.2L831.5,142.5L831.3,142.6L832.1,143.2Z M832.6,136.0L832.5,133.9L832.1,134.8L832.6,136.0Z M835.3,131.8L835.3,131.5L835.2,131.2L835.1,130.9L835.1,130.6L834.3,130.6L834.0,130.6L834.1,131.3L834.7,133.1L835.6,134.8L836.3,133.6L836.2,133.4L836.0,132.9L835.8,132.5L835.5,132.0L835.4,131.8L835.3,131.8Z M834.6,134.5L833.8,131.1L833.2,134.5L834.6,134.5Z M829.7,126.9L829.2,125.6L828.9,125.0L828.8,124.7L828.1,125.0L826.8,125.5L825.4,126.0L824.1,126.5L822.8,127.0L826.3,137.0L826.9,139.2L826.9,141.3L828.2,140.6L831.9,137.9L831.2,130.6L830.2,128.8L833.2,130.2L832.5,129.5L832.1,129.4L831.9,129.4L831.7,129.4L831.4,129.3L831.2,129.1L831.1,129.0L831.0,128.8L830.9,128.7L830.8,128.0L830.7,127.8L830.6,127.7L830.6,127.5L830.6,127.4L830.5,127.3L830.4,127.0L830.4,127.0L830.2,127.0L830.0,127.1L829.8,127.1L829.8,127.0L829.7,126.9Z "/>
        <path d="M805.6,64.3L794.6,68.4L793.2,68.9L780.6,73.3L779.9,73.5L781.4,77.5L784.4,84.2L785.2,87.7L785.1,90.7L785.9,94.2L787.9,98.2L791.3,102.7L796.2,118.6L796.6,119.2L797.3,118.9L798.0,118.7L798.7,118.5L799.5,118.3L800.2,118.1L800.9,117.9L801.6,117.7L802.4,117.5L803.1,117.2L803.8,117.0L804.5,116.8L805.2,116.6L806.0,116.4L806.7,116.2L807.4,115.9L808.1,115.7L805.8,113.1L804.7,102.5L803.6,99.0L804.5,92.9L804.5,86.3L803.4,81.1L806.1,78.3L807.8,75.4L808.1,73.5L805.6,64.3L805.6,64.3Z "/>
        <path d="M607.4,435.1L607.0,434.5L603.4,435.8L607.4,435.1Z M638.0,328.8L635.0,329.3L618.8,331.8L610.6,332.8L593.6,335.0L593.8,335.2L594.2,336.0L595.6,336.9L595.9,360.9L596.2,401.4L601.4,432.8L601.8,432.6L603.1,432.3L606.3,433.6L606.7,427.9L607.5,424.6L611.4,431.4L612.9,432.9L611.3,434.6L616.4,433.2L619.6,429.0L618.9,428.4L619.0,428.5L614.5,418.0L629.7,415.8L658.3,411.3L661.1,410.8L661.1,410.7L658.4,405.4L658.3,398.0L656.1,393.9L657.2,386.0L659.0,384.0L656.5,379.1L653.7,374.6L651.6,370.5L642.2,341.6L638.1,328.9L638.0,328.8Z "/>
        <path d="M735.3,535.9L735.1,535.9L735.1,535.9L735.3,535.9Z M748.4,531.0L748.4,531.2L748.3,531.0L748.4,531.0Z M751.1,530.4L750.9,530.5L751.1,530.1L751.1,530.4Z M750.1,530.2L749.6,529.8L749.7,529.7L750.1,530.2Z M749.8,530.9L749.3,530.7L748.6,529.4L749.8,530.9Z M759.4,525.0L759.6,525.2L759.4,525.4L759.4,525.0Z M760.9,524.0L760.8,523.9L761.1,523.5L760.9,524.0Z M753.1,516.6L752.6,516.1L753.1,516.0L753.1,516.6Z M751.7,515.6L752.2,515.9L752.2,516.1L751.7,515.6Z M766.5,516.3L762.8,521.7L765.9,513.7L766.5,516.3Z M768.3,510.4L768.5,508.6L768.5,509.9L768.3,510.4Z M768.4,504.7L767.8,504.1L768.1,503.7L768.4,504.7Z M743.2,506.0L743.0,506.4L742.3,506.3L743.2,506.0Z M739.1,506.1L739.2,506.9L738.5,506.4L739.1,506.1Z M741.9,506.2L741.3,505.8L741.8,505.9L741.9,506.2Z M728.7,496.1L729.3,496.8L728.1,496.4L728.7,496.1Z M726.3,492.9L725.8,492.5L725.4,491.6L726.3,492.9Z M729.5,494.9L727.0,491.3L728.1,491.6L729.5,494.9Z M725.3,490.8L724.8,489.5L725.1,489.9L725.3,490.8Z M717.1,479.4L715.9,478.8L715.3,478.0L717.1,479.4Z M716.2,475.1L715.8,475.3L716.0,475.0L716.2,475.1Z M762.6,473.1L754.8,460.6L755.2,460.6L762.6,473.1Z M749.1,446.3L748.4,451.2L747.0,447.2L749.1,446.3Z M710.7,450.5L711.0,450.5L711.0,450.8L710.7,450.5Z M710.6,450.1L710.4,449.8L710.3,449.8L710.6,450.1Z M702.8,443.4L702.6,443.6L702.5,443.1L702.8,443.4Z M666.0,439.8L665.7,439.7L669.1,437.5L666.0,439.8Z M672.1,435.0L671.2,435.2L672.4,434.7L672.1,435.0Z M619.0,428.5L614.5,418.0L629.7,415.8L658.3,411.3L661.1,410.8L661.1,410.9L664.5,416.2L712.2,410.7L713.6,414.4L716.2,412.7L716.3,411.3L715.2,406.6L717.9,404.5L724.9,404.9L724.9,405.1L726.3,405.3L725.5,408.3L727.7,410.9L728.4,413.2L735.0,427.2L745.8,441.5L750.6,448.9L750.5,451.7L751.6,455.8L750.4,453.8L748.7,445.3L747.9,446.0L744.0,442.6L748.5,452.3L756.8,464.2L758.1,467.2L762.4,473.8L766.4,480.6L766.8,482.6L767.8,494.8L768.6,502.5L767.4,501.0L767.5,503.3L765.9,506.6L766.0,511.1L766.6,511.5L764.9,515.3L763.4,515.1L760.9,517.5L757.1,517.8L756.2,518.8L753.0,520.0L750.8,517.5L752.6,516.9L755.6,517.3L752.0,515.3L747.3,508.7L746.5,508.7L745.1,506.3L736.1,502.4L733.2,494.5L729.6,493.8L728.8,490.9L729.7,484.4L727.7,485.6L724.5,485.2L727.1,488.7L723.9,488.7L717.9,480.7L717.3,478.2L715.2,475.9L719.2,468.9L717.7,466.6L716.4,468.7L713.8,465.8L713.2,466.6L714.8,472.2L711.3,469.9L713.7,473.2L710.8,470.1L711.2,465.1L710.6,462.3L712.0,456.5L711.1,450.0L711.2,447.5L707.0,441.8L702.9,442.6L695.8,436.7L688.5,429.2L681.7,426.4L678.3,427.0L673.5,431.9L667.2,437.1L660.9,439.0L659.6,438.9L659.4,436.9L657.8,434.8L651.7,430.9L654.1,431.5L654.9,430.3L650.6,429.8L652.9,427.5L650.5,428.7L648.2,428.4L650.4,431.0L644.1,428.5L638.7,427.4L642.8,426.4L638.1,425.6L634.6,427.0L626.7,428.9L627.8,427.7L626.2,425.0L625.0,428.3L623.5,428.8L621.4,431.4L618.3,432.7L619.6,430.0L619.3,428.6L619.0,428.5Z "/>
        <path d="M725.6,404.3L724.5,400.8L725.2,399.9L725.6,404.3Z M657.4,380.9L657.3,380.8L656.5,379.1L653.7,374.6L651.6,370.5L642.2,341.6L638.1,328.9L638.0,328.8L639.9,328.6L648.4,327.0L650.6,326.6L658.4,325.2L659.9,325.0L661.2,324.7L675.3,321.9L679.2,321.1L680.5,320.8L680.5,320.9L677.7,326.4L678.1,328.4L682.0,329.9L684.1,331.4L686.9,331.3L687.4,332.4L692.1,338.5L696.4,342.1L700.5,344.9L701.5,346.3L705.3,348.1L707.1,349.9L707.1,351.1L711.6,355.1L716.2,357.3L719.1,364.6L722.3,366.0L724.4,369.3L725.7,373.6L726.8,374.5L730.5,375.0L730.5,375.0L729.5,377.0L729.9,378.5L726.9,379.4L726.2,384.0L727.8,384.1L725.8,386.2L727.3,387.2L726.5,389.8L726.9,392.6L725.3,395.5L724.3,394.0L723.7,397.1L724.3,399.0L724.8,404.7L724.9,404.9L717.9,404.5L715.2,406.6L716.3,411.3L716.2,412.7L713.6,414.4L712.2,410.7L664.5,416.2L661.1,410.9L661.1,410.8L661.1,410.7L658.4,405.4L658.3,398.0L656.1,393.9L657.2,386.0L659.0,384.0L657.4,380.9Z "/>
        <path d="M591.9,437.7L591.4,437.8L591.4,437.9L591.9,437.7Z M601.3,436.5L599.9,436.5L601.2,436.7L601.3,436.5Z M589.6,437.5L589.1,437.9L589.3,438.0L589.6,437.5Z M599.1,436.7L595.2,436.7L598.9,436.8L599.1,436.7Z M557.1,339.7L557.1,339.8L557.7,340.3L556.5,342.6L554.7,343.6L555.0,345.0L552.9,346.9L553.3,352.4L550.5,353.6L547.6,359.3L548.8,361.0L546.5,363.6L544.2,368.6L544.0,371.5L545.8,373.3L545.1,376.8L546.9,380.2L545.9,381.0L546.0,383.2L546.0,383.9L546.7,387.5L548.3,389.4L547.0,391.7L551.9,397.3L548.9,402.0L549.5,402.6L546.8,406.9L545.4,407.6L544.1,410.5L543.8,414.1L542.9,418.4L540.8,421.5L542.2,425.2L540.8,426.5L575.7,422.9L574.6,427.8L579.0,436.5L581.3,439.4L581.3,439.4L585.6,435.5L593.0,433.5L595.2,434.3L600.3,434.3L601.3,432.8L601.4,432.8L596.2,401.4L595.9,360.9L595.6,336.9L594.2,336.0L593.8,335.2L593.6,335.2L588.5,335.9L579.5,337.0L559.3,339.4L557.1,339.7Z "/>
        <path d="M680.5,320.8L680.5,320.9L677.7,326.4L678.1,328.4L682.0,329.9L684.1,331.4L686.9,331.3L687.4,332.4L692.1,338.5L696.4,342.1L700.5,344.9L701.5,346.3L705.3,348.1L707.1,349.9L707.1,351.1L711.6,355.1L716.2,357.3L719.1,364.6L722.3,366.0L724.4,369.3L725.7,373.6L726.8,374.5L730.5,375.0L730.3,374.7L732.7,371.9L732.1,369.7L730.9,368.6L729.9,365.9L732.9,367.4L734.2,369.2L736.7,367.3L732.6,364.2L734.4,362.9L737.6,363.6L737.5,362.5L743.1,358.9L745.4,356.9L744.6,355.2L747.3,354.5L749.6,350.9L749.8,348.7L752.5,348.4L752.5,347.4L754.7,344.8L753.9,341.8L758.3,332.0L762.0,327.3L762.5,327.0L740.0,312.4L731.6,314.0L720.1,313.5L716.9,310.8L714.5,310.4L693.7,313.7L692.5,314.1L686.2,318.1L680.8,320.8L680.5,320.8Z "/>
        <path d="M587.5,175.0L578.7,176.3L556.7,179.1L534.7,181.5L534.7,181.5L534.5,182.0L538.3,184.5L539.5,187.0L543.6,190.8L543.4,194.1L541.6,197.5L541.2,200.4L536.1,204.0L531.6,204.9L530.5,207.0L530.7,210.2L532.2,211.0L531.3,219.3L530.7,221.3L526.9,223.6L527.6,227.6L526.7,227.9L526.7,227.9L525.9,232.4L526.6,235.9L529.1,241.5L534.2,245.6L535.0,246.9L540.6,251.3L541.7,256.0L543.8,258.2L546.5,256.2L551.1,257.9L551.2,259.4L548.6,268.6L549.3,272.0L553.6,275.6L560.5,278.6L564.2,281.6L564.4,284.0L566.3,287.3L565.1,289.4L568.2,294.6L569.3,294.0L572.3,295.4L572.6,295.5L572.0,294.9L571.8,293.2L574.0,290.1L580.5,291.6L581.8,292.2L583.7,290.0L582.2,285.6L585.1,283.8L588.1,282.9L588.6,281.8L586.9,279.5L588.4,276.0L588.4,275.7L588.0,275.6L587.1,273.9L588.1,266.6L590.3,264.9L590.6,263.2L592.2,260.6L592.6,258.6L594.2,255.9L593.4,251.9L590.9,247.1L592.3,241.8L591.8,237.8L585.3,191.1L589.9,190.4L590.0,190.4L590.0,190.4L590.1,186.7L590.2,183.5L590.4,176.8L590.5,174.6L587.5,175.0Z "/>
        <path d="M589.9,190.4L585.3,191.1L591.8,237.8L592.3,241.8L590.9,247.1L593.4,251.9L594.2,255.9L592.6,258.6L592.2,260.6L590.6,263.2L590.3,264.9L588.1,266.6L587.1,273.9L588.0,275.6L588.4,275.7L588.8,275.6L590.8,274.8L590.3,272.7L592.0,273.6L594.1,272.7L594.8,274.4L598.6,271.3L604.3,273.4L604.9,271.1L608.2,268.7L609.1,270.1L611.3,270.3L613.0,269.4L613.9,266.5L615.7,264.3L615.4,263.5L620.5,267.0L622.8,264.9L622.8,261.9L626.4,258.3L626.4,256.4L629.2,253.6L628.1,249.7L631.3,248.9L632.6,249.7L638.1,245.4L636.5,241.7L636.8,240.4L637.1,240.1L636.8,238.4L635.4,229.9L628.2,187.1L627.9,185.4L627.7,184.2L603.6,188.3L590.3,190.4L590.0,190.4L589.9,190.4Z "/>
        <path d="M567.6,306.1L567.3,305.3L566.6,305.0L566.2,306.4L566.4,306.5L567.5,306.4L567.6,306.1Z M637.1,240.1L636.8,240.4L636.5,241.7L638.1,245.4L632.6,249.7L631.3,248.9L628.1,249.7L629.2,253.6L626.4,256.4L626.4,258.3L622.8,261.9L622.8,264.9L620.5,267.0L615.4,263.5L615.7,264.3L613.9,266.5L613.0,269.4L611.3,270.3L609.1,270.1L608.2,268.7L604.9,271.1L604.3,273.4L598.6,271.3L594.8,274.4L594.1,272.7L592.0,273.6L590.3,272.7L590.8,274.8L588.8,275.6L588.4,275.7L588.4,276.0L586.9,279.5L588.6,281.8L588.1,282.9L585.1,283.8L582.2,285.6L583.7,290.0L581.8,292.2L580.5,291.6L574.0,290.1L571.8,293.2L572.0,294.9L572.6,295.5L572.7,295.9L571.9,304.1L571.4,304.4L568.8,306.0L568.7,306.3L571.6,305.9L592.1,303.2L591.1,299.3L594.5,299.1L635.7,294.0L649.1,291.8L659.2,290.3L664.8,289.3L665.2,289.0L665.8,288.2L673.5,284.2L675.2,281.6L677.3,280.2L677.3,278.5L679.3,276.6L680.2,273.9L684.0,270.9L688.9,264.7L689.6,263.7L689.3,263.6L686.8,263.7L683.6,261.8L679.4,256.0L676.1,252.9L675.8,247.4L675.6,247.2L673.6,245.4L671.3,244.7L669.5,241.5L665.6,245.2L663.1,245.7L660.1,244.5L657.4,246.5L652.0,244.1L650.6,244.6L647.2,242.5L645.4,240.1L642.8,238.8L640.1,240.0L637.9,239.4L637.1,240.1Z "/>
        <path d="M773.0,323.6L771.9,324.8L772.1,324.9L773.0,323.6Z M773.9,317.7L773.4,318.5L773.5,319.4L773.9,317.7Z M780.0,308.4L778.5,309.4L777.6,310.5L780.0,308.4Z M793.0,302.2L792.4,301.7L791.2,301.6L793.0,302.2Z M790.3,301.5L789.4,301.5L787.9,302.2L790.3,301.5Z M797.8,293.0L799.2,291.1L798.4,291.1L797.8,293.0Z M806.4,285.2L806.7,282.8L805.7,276.7L804.2,273.9L806.1,279.8L806.4,285.2Z M794.1,259.4L793.9,259.5L793.7,259.6L793.7,259.6L799.2,269.1L802.8,272.4L794.2,259.4L794.1,259.4Z M791.7,260.3L793.4,260.3L793.2,259.7L793.2,259.7L792.9,259.8L792.7,259.8L792.6,260.0L792.4,260.1L792.3,259.9L791.5,260.2L791.7,260.3Z M791.2,260.2L760.8,268.8L730.7,276.3L722.4,278.2L721.1,278.4L719.9,278.6L705.9,281.4L700.1,282.2L698.7,282.3L698.6,282.1L698.0,283.6L698.1,288.0L695.5,289.7L694.4,293.2L693.0,294.3L691.4,293.5L685.9,298.8L685.0,297.0L680.4,300.3L680.4,302.6L675.5,306.4L672.0,310.0L668.0,311.0L663.7,314.8L662.8,318.6L659.8,319.5L659.8,324.0L659.9,325.0L661.2,324.7L675.3,321.9L679.2,321.1L680.5,320.8L680.8,320.8L686.2,318.1L692.5,314.1L693.7,313.7L714.5,310.4L716.9,310.8L720.1,313.5L731.6,314.0L740.0,312.4L762.5,327.0L762.9,326.7L762.8,327.2L772.3,323.0L772.3,320.4L773.4,322.6L773.5,317.0L775.4,312.8L777.2,310.3L781.3,306.4L782.3,304.0L789.7,301.0L790.8,298.9L793.1,300.0L795.1,295.9L792.1,295.1L789.3,295.9L788.6,297.0L784.6,297.0L782.0,294.1L786.8,296.2L789.6,293.4L788.0,291.8L790.9,288.8L789.8,288.2L785.5,287.8L780.3,286.5L779.9,286.0L787.1,286.1L786.6,284.4L789.6,283.2L788.0,284.6L790.5,286.6L790.6,284.7L793.9,285.7L796.7,283.7L798.7,279.7L800.6,279.3L801.0,277.9L800.2,273.7L797.9,271.5L797.0,273.3L795.6,273.6L796.1,278.9L794.4,272.3L793.1,272.0L789.9,273.8L787.1,274.3L783.1,276.0L781.8,271.1L785.0,273.9L789.1,271.0L790.5,269.4L794.1,267.6L793.7,265.4L797.5,269.0L793.5,262.3L793.9,263.6L791.3,260.3L791.2,260.2Z "/>
        <path d="M689.2,159.4L679.9,163.7L674.2,169.4L660.3,179.5L654.0,177.2L652.9,175.8L652.7,175.4L648.4,180.7L644.6,181.6L629.2,185.1L627.9,185.4L628.2,187.1L635.4,229.9L636.8,238.4L637.1,240.1L637.9,239.4L640.1,240.0L642.8,238.8L645.4,240.1L647.2,242.5L650.6,244.6L652.0,244.1L657.4,246.5L660.1,244.5L663.1,245.7L665.6,245.2L669.5,241.5L671.3,244.7L673.6,245.4L675.6,247.2L675.8,247.4L675.8,247.4L680.1,245.2L680.4,238.5L681.9,233.4L683.9,233.3L685.0,235.6L686.9,233.8L686.1,228.4L688.4,226.1L688.5,224.5L690.4,222.8L691.1,223.6L694.9,220.7L695.6,218.9L698.0,216.0L698.4,197.6L697.6,196.4L698.7,193.8L698.9,193.6L698.4,191.5L697.4,187.1L695.9,180.5L690.9,158.7L689.2,159.4Z "/>
        <path d="M664.8,289.3L659.2,290.3L649.1,291.8L635.7,294.0L594.5,299.1L591.1,299.3L592.1,303.2L571.6,305.9L568.7,306.3L568.7,306.4L567.9,307.4L567.5,307.3L567.5,306.5L567.5,306.4L566.4,306.5L566.5,306.6L567.1,309.4L565.6,310.0L566.6,311.8L565.0,312.0L564.9,316.7L564.8,317.4L564.8,317.6L565.2,320.9L561.8,323.4L562.4,327.6L559.5,332.0L560.5,336.1L556.9,339.4L557.1,339.7L559.3,339.4L579.5,337.0L588.5,335.9L593.6,335.2L593.8,335.2L593.6,335.0L610.6,332.8L618.8,331.8L635.0,329.3L638.0,328.8L639.9,328.6L648.4,327.0L650.6,326.6L658.4,325.2L659.9,325.0L659.8,324.0L659.8,319.5L662.8,318.6L663.7,314.8L668.0,311.0L672.0,310.0L675.5,306.4L680.4,302.6L680.4,300.3L685.0,297.0L685.9,298.8L691.4,293.5L693.0,294.3L694.4,293.2L695.5,289.7L698.1,288.0L698.0,283.6L698.6,282.1L697.0,282.4L691.2,283.9L684.3,285.3L666.9,288.7L665.2,289.0L664.8,289.3Z "/>
        <path d="M792.7,259.8L792.9,259.8L793.2,259.7L793.0,259.2L792.7,259.4L792.5,259.6L792.7,259.8L792.7,259.8Z M791.8,241.3L791.8,239.9L791.6,241.1L791.8,241.3Z M793.5,226.7L789.8,228.3L789.7,228.5L789.6,229.2L789.8,229.2L788.5,233.6L788.5,236.0L787.4,240.9L787.6,245.5L789.5,247.5L790.6,246.4L789.8,242.8L790.2,239.5L792.2,238.5L793.5,226.9L793.5,226.7Z M795.7,225.7L795.5,225.8L795.4,225.8L795.4,225.9L794.4,229.7L795.3,228.4L795.7,225.7Z M689.6,263.7L688.9,264.7L684.0,270.9L680.2,273.9L679.3,276.6L677.3,278.5L677.3,280.2L675.2,281.6L673.5,284.2L665.8,288.2L665.2,289.0L666.9,288.7L684.3,285.3L691.2,283.9L697.0,282.4L698.6,282.1L698.7,282.3L700.1,282.2L705.9,281.4L719.9,278.6L721.1,278.4L722.4,278.2L730.7,276.3L760.8,268.8L791.2,260.2L791.1,260.1L791.0,259.9L790.9,259.8L790.8,259.5L791.5,260.2L792.3,259.9L792.3,259.9L792.2,256.7L793.0,258.1L793.5,259.3L793.7,259.6L793.9,259.5L794.1,259.4L793.7,258.6L790.3,252.9L784.7,253.0L784.8,254.4L782.8,254.9L777.1,250.0L773.7,250.6L771.7,249.3L767.0,250.0L771.3,248.6L773.7,249.0L782.1,252.5L784.4,251.9L784.5,250.6L781.8,247.7L779.3,247.8L775.3,245.2L773.8,243.2L778.1,246.6L780.5,247.3L782.1,244.5L783.3,245.4L782.9,242.6L780.7,241.6L781.6,240.3L777.4,240.1L775.0,237.9L769.3,234.4L768.8,233.1L764.8,231.7L766.2,231.4L777.8,239.4L780.2,239.4L780.9,237.6L779.4,234.7L780.4,234.9L773.5,229.7L770.8,230.1L765.1,226.4L761.3,228.6L760.4,226.6L760.6,221.9L762.0,221.4L763.1,219.0L761.9,216.1L761.9,216.1L761.9,216.1L761.7,215.9L760.9,215.5L760.8,215.5L757.3,213.9L755.4,214.1L753.5,212.9L754.0,211.5L749.4,210.2L749.1,210.1L749.0,210.2L748.5,214.4L739.0,210.2L739.2,216.1L735.4,222.5L734.0,225.9L731.6,225.3L730.9,229.4L728.9,235.3L722.6,233.2L719.6,246.9L717.1,251.6L716.4,254.6L716.7,257.6L714.8,260.6L708.4,263.6L706.9,265.1L702.5,266.8L699.8,267.2L697.3,269.4L693.0,268.5L690.9,267.1L689.8,263.9L689.6,263.7Z "/>
        <path d="M531.6,79.6L524.1,80.1L512.1,89.6L505.4,94.4L503.2,93.8L500.8,96.3L501.9,108.5L497.7,111.7L495.4,114.4L494.0,117.1L494.2,120.0L495.6,120.0L497.7,123.3L496.5,130.9L497.2,135.9L496.7,137.3L500.5,140.1L502.9,140.3L510.6,145.0L513.6,148.7L515.5,150.1L519.4,150.9L521.6,153.3L523.1,161.1L523.0,161.6L523.0,161.6L523.2,162.6L525.9,165.2L525.1,167.9L526.2,173.9L529.2,178.1L534.8,181.0L534.7,181.5L534.7,181.5L556.7,179.1L578.7,176.3L587.5,175.0L590.5,174.6L589.7,171.7L585.1,150.3L585.3,143.2L587.5,124.3L589.0,120.9L592.8,115.2L586.6,112.5L579.6,112.4L575.9,120.0L575.8,121.3L571.3,119.1L571.4,115.0L568.7,115.9L568.7,109.0L567.3,107.9L563.7,107.0L563.3,104.5L557.7,103.7L555.8,104.0L548.1,102.0L533.0,99.7L531.4,96.8L528.6,95.8L532.6,80.5L532.9,79.5L531.6,79.6Z "/>
        <path d="M717.6,209.5L703.2,212.9L698.9,193.7L698.9,193.6L698.7,193.8L697.6,196.4L698.4,197.6L698.0,216.0L695.6,218.9L694.9,220.7L691.1,223.6L690.4,222.8L688.5,224.5L688.4,226.1L686.1,228.4L686.9,233.8L685.0,235.6L683.9,233.3L681.9,233.4L680.4,238.5L680.1,245.2L675.8,247.4L675.8,247.4L676.1,252.9L679.4,256.0L683.6,261.8L686.8,263.7L689.3,263.6L689.6,263.7L689.8,263.9L690.9,267.1L693.0,268.5L697.3,269.4L699.8,267.2L702.5,266.8L706.9,265.1L708.4,263.6L714.8,260.6L716.7,257.6L716.4,254.6L717.1,251.6L719.6,246.9L722.6,233.2L728.9,235.3L730.9,229.4L731.6,225.3L734.0,225.9L735.4,222.5L739.2,216.1L739.0,210.2L748.5,214.4L749.0,210.2L749.1,210.1L749.0,210.1L746.1,205.0L740.0,204.2L736.5,206.9L736.5,208.9L733.4,209.6L731.1,208.0L729.0,212.7L726.6,213.7L722.0,219.7L719.7,209.0L717.6,209.5Z "/>
        <path d="M777.3,193.5L777.8,194.9L785.5,218.3L785.8,219.3L795.6,216.4L795.6,216.2L795.7,216.2L795.8,216.2L796.0,216.2L796.1,216.3L796.3,216.2L796.2,215.7L793.9,209.5L792.3,209.5L789.6,207.9L785.3,200.3L784.0,199.7L780.8,195.0L782.4,190.1L782.4,190.0L777.8,191.9L777.4,193.4L777.3,193.5Z "/>
        <path d="M760.9,215.5L761.7,215.9L761.9,216.1L761.9,216.1L762.6,216.3L763.0,217.2L763.1,217.9L764.4,215.6L761.8,214.1L760.9,215.5Z "/>
        <path d="M783.8,229.9L783.0,229.8L783.5,229.9L783.8,229.9Z M795.7,225.5L796.2,220.1L796.0,221.8L795.6,225.0L795.4,225.8L795.5,225.8L795.7,225.7L795.7,225.5Z M796.3,216.2L796.1,216.3L796.1,216.3L796.4,218.8L796.6,218.3L796.3,216.2L796.3,216.2Z M719.7,209.0L722.0,219.7L726.6,213.7L729.0,212.7L731.1,208.0L733.4,209.6L736.5,208.9L736.5,206.9L740.0,204.2L746.1,205.0L749.0,210.1L749.1,210.1L749.4,210.2L754.0,211.5L753.5,212.9L755.4,214.1L757.3,213.9L760.8,215.5L760.9,215.5L761.8,214.1L764.4,215.6L763.1,217.9L763.2,218.3L762.0,223.3L761.2,224.0L762.6,227.8L764.7,224.7L766.3,226.8L772.5,227.8L774.0,228.7L777.7,228.2L771.0,223.6L775.7,224.5L773.1,221.7L770.6,215.1L771.5,210.3L769.8,210.0L769.3,208.2L767.5,206.8L770.8,206.4L769.8,204.9L771.9,204.2L772.3,202.2L776.5,198.0L775.5,200.8L778.5,200.9L775.5,201.8L774.2,202.9L773.3,206.1L774.7,207.6L776.3,206.6L775.5,208.8L773.0,211.9L774.9,211.1L774.4,217.3L776.2,215.1L779.0,217.6L777.7,218.9L776.7,222.4L778.3,223.9L781.9,225.2L784.0,221.6L783.8,226.6L786.4,225.8L787.2,226.6L785.6,229.8L789.4,229.1L789.6,229.2L789.7,228.5L789.8,228.3L793.5,226.7L793.5,226.5L795.8,221.1L796.2,218.9L795.7,216.5L795.6,216.4L785.8,219.3L785.5,218.3L777.8,194.9L777.3,193.5L775.5,194.0L757.6,199.1L752.2,200.6L721.5,208.6L719.7,209.0Z "/>
        <path d="M801.3,193.4L800.8,192.1L800.8,193.4L801.3,193.4Z M802.4,189.7L802.6,188.0L802.1,189.3L802.4,189.7Z M798.3,158.5L787.7,155.7L785.9,155.2L784.1,154.7L784.1,154.7L782.4,157.1L779.8,164.1L781.7,166.3L781.3,167.2L781.6,173.2L783.5,173.4L784.1,175.0L791.0,179.4L787.3,183.8L787.2,184.2L785.1,188.1L783.9,188.8L782.2,191.4L782.7,196.9L791.1,200.9L794.6,201.1L794.6,205.9L796.0,205.3L797.0,203.4L799.0,196.6L797.9,196.4L800.7,194.5L801.6,190.8L801.0,189.8L802.1,183.0L801.3,179.9L802.5,179.7L801.9,177.6L801.0,170.8L795.9,169.0L797.0,165.2L797.7,165.4L798.4,158.8L798.3,158.5Z "/>
        <path d="M798.1,166.3L796.4,169.9L797.9,168.4L798.1,166.3Z M810.3,161.9L806.0,164.5L806.4,164.6L810.3,161.9Z M811.9,161.7L816.6,157.3L813.5,160.3L811.9,161.7Z M822.2,147.1L821.4,146.8L815.7,153.2L809.8,155.2L809.7,156.2L806.5,156.6L802.9,159.5L803.4,160.4L799.6,162.5L798.5,165.8L799.6,167.2L801.2,165.0L802.6,165.5L801.1,167.2L805.1,164.4L811.6,160.4L815.8,156.9L818.0,156.3L822.8,152.4L823.9,150.9L828.4,146.6L825.4,148.9L821.5,149.7L822.2,147.1Z M824.9,143.4L825.7,142.3L824.6,142.9L824.9,143.4Z M701.2,151.5L704.0,162.7L725.1,157.3L739.5,153.4L751.8,150.0L770.6,144.4L772.6,146.4L774.8,146.4L777.4,151.4L780.7,153.7L783.9,154.3L784.1,154.7L785.9,155.2L787.7,155.7L798.3,158.5L798.2,157.9L796.3,153.6L797.4,154.3L799.2,162.2L800.6,161.4L802.1,156.8L802.1,156.8L800.4,155.2L803.0,152.0L801.8,150.4L798.1,135.5L797.8,134.5L797.3,134.2L797.2,133.8L797.2,132.9L797.1,131.3L797.0,129.7L796.9,128.1L796.8,126.5L796.7,124.9L796.6,123.3L796.5,121.7L796.4,120.1L796.4,119.6L796.6,119.2L796.2,118.6L791.3,102.7L787.9,98.2L785.9,94.2L785.1,90.7L785.2,87.7L784.4,84.2L781.4,77.5L779.9,73.5L779.2,73.8L761.0,79.9L758.1,80.6L753.8,85.2L749.4,92.8L748.0,97.1L744.7,100.5L744.6,102.2L741.6,106.3L739.5,115.5L738.7,117.4L711.5,124.7L705.3,130.0L708.1,133.8L709.7,138.8L712.1,141.0L711.0,143.2L703.0,150.0L701.2,151.5Z "/>
        <path d="M700.9,151.7L696.8,155.1L694.8,156.8L691.1,158.6L690.9,158.7L695.9,180.5L697.4,187.1L698.4,191.5L698.9,193.6L698.9,193.7L703.2,212.9L717.6,209.5L719.7,209.0L721.5,208.6L752.2,200.6L757.6,199.1L775.5,194.0L777.3,193.5L777.4,193.4L777.8,191.9L782.4,190.0L782.7,189.2L786.6,184.7L787.0,184.1L787.3,183.8L791.0,179.4L784.1,175.0L783.5,173.4L781.6,173.2L781.3,167.2L781.7,166.3L779.8,164.1L782.4,157.1L784.1,154.7L784.1,154.7L783.9,154.3L780.7,153.7L777.4,151.4L774.8,146.4L772.6,146.4L770.6,144.4L751.8,150.0L739.5,153.4L725.1,157.3L704.0,162.7L701.2,151.5L700.9,151.7Z "/>
        <path d="M850.5,69.4L850.6,68.3L849.4,68.4L850.5,69.4Z M851.7,64.6L850.7,66.3L852.0,65.7L851.7,64.6Z M856.7,60.5L854.1,58.6L853.6,59.1L855.2,62.7L855.1,61.2L856.7,60.5Z M809.3,56.3L823.9,91.0L827.3,96.5L830.5,99.6L830.5,99.5L831.5,99.2L831.6,93.0L834.5,86.7L833.0,84.0L835.2,79.5L836.8,78.6L838.6,81.7L839.1,80.8L837.2,76.9L835.9,76.6L836.9,74.2L837.3,76.7L838.3,77.7L839.3,75.7L841.3,78.0L842.2,77.4L842.4,73.6L846.1,72.0L845.8,65.3L846.3,64.2L844.9,62.7L847.4,59.0L848.1,63.9L852.6,63.9L851.8,59.6L852.4,59.9L855.1,57.5L858.5,59.3L858.9,56.6L860.1,55.1L859.5,53.1L861.8,52.8L864.5,48.1L866.9,48.7L869.1,43.3L867.0,40.5L864.1,38.1L862.1,37.7L861.8,38.9L858.6,37.3L858.6,35.7L856.6,33.1L856.2,30.5L851.5,30.9L850.0,29.1L848.8,25.5L840.7,6.7L836.1,1.7L832.1,0.2L823.8,7.0L821.6,6.5L819.7,3.0L817.1,3.9L813.2,22.5L814.5,28.6L813.4,34.3L813.8,34.3L815.6,41.0L814.7,42.8L815.3,44.6L812.7,48.8L812.6,50.4L814.6,51.9L812.1,52.5L812.2,56.6L810.9,55.1L809.5,56.2L809.3,56.3Z "/>
        <path d="M537.4,63.7L533.5,77.5L533.2,78.5L532.9,79.5L532.6,80.5L528.6,95.8L531.4,96.8L533.0,99.7L548.1,102.0L555.8,104.0L557.7,103.7L563.3,104.5L563.7,107.0L567.3,107.9L568.7,109.0L568.7,115.9L571.4,115.0L571.3,119.1L575.8,121.3L575.9,120.0L579.6,112.4L586.6,112.5L592.8,115.2L589.0,120.9L587.5,124.3L585.3,143.2L585.1,150.3L589.7,171.7L590.5,174.6L590.4,176.8L590.2,183.5L590.1,186.7L590.0,190.4L590.0,190.4L590.3,190.4L603.6,188.3L627.7,184.2L627.9,185.4L629.2,185.1L644.6,181.6L648.4,180.7L652.7,175.4L652.0,174.2L652.4,166.9L653.8,166.1L658.8,160.0L658.9,149.9L660.5,138.7L647.1,103.4L643.1,100.9L629.4,95.7L630.5,91.6L628.6,89.9L622.8,91.4L620.7,89.0L619.0,82.3L613.6,85.0L612.7,84.9L608.8,81.4L606.5,76.6L567.0,61.0L552.7,55.2L537.9,63.7L537.4,63.7Z "/>
    </g>
</svg>